#!OML:ASF X:\für Bonn\!DataBase\2005_08_11_Bastian_Final\c3d\Bastian.ASF
:FULLY-SPECIFIED
:DEGREES
61
root -1.3913 8.74739 1.83584 163.848 -1.62461 -172.287
lowerback 32.3624 -0.00959272 3.75062
upperback 7.07792 -0.75292 2.43649
thorax -8.80263 -1.36751 0.982772
lowerneck -8.94969 -6.7945 -5.03905
upperneck -10.3379 -6.87793 13.0232
head -0.903941 -2.87068 4.59108
rclavicle -1.58531e-014 1.47101e-014
rhumerus 72.0469 8.4688 20.5921
rradius 40.9576
rwrist -72.4491
rhand -50.5145 -8.22441
rfingers 7.12502
rthumb -23.0828 -36.8618
lclavicle -1.58531e-014 1.47101e-014
lhumerus 68.626 -14.5343 -30.4953
lradius 32.1186
lwrist 29.2757
lhand -46.8786 23.7289
lfingers 7.12502
lthumb -19.5905 52.7619
rfemur -50.5376 -20.8787 27.7038
rtibia 140.385
rfoot -46.9011 -2.30206
rtoes -0.188572
lfemur -47.9229 29.1461 1.47188
ltibia 143.919
lfoot -49.0456 -22.8749
ltoes -13.9576
62
root -1.39454 8.56542 1.8393 163.703 -1.65043 -172.379
lowerback 32.6933 0.0352384 3.66287
upperback 7.12021 -0.747117 2.43297
thorax -8.88664 -1.37959 1.0332
lowerneck -8.94176 -6.79506 -5.02682
upperneck -10.3431 -6.88222 12.9985
head -0.908121 -2.874 4.58175
rclavicle -2.98177e-015 1.37161e-014
rhumerus 71.9453 8.18342 20.8269
rradius 40.9818
rwrist -72.6958
rhand -50.5317 -8.31556
rfingers 7.12502
rthumb -23.0993 -36.9509
lclavicle -2.98177e-015 1.37161e-014
lhumerus 68.5927 -14.3512 -31.0539
lradius 32.4109
lwrist 30.3277
lhand -47.1435 23.9276
lfingers 7.12502
lthumb -19.8453 52.9344
rfemur -51.0657 -21.7958 27.5077
rtibia 141.967
rfoot -47.4628 -2.48684
rtoes 0.0799388
lfemur -48.1752 31.1281 2.25691
ltibia 145.485
lfoot -49.518 -23.0999
ltoes -13.967
63
root -1.39835 8.40024 1.84339 163.556 -1.67389 -172.475
lowerback 33.0493 0.0823185 3.57685
upperback 7.16002 -0.738751 2.43828
thorax -8.98192 -1.39162 1.09193
lowerneck -8.93619 -6.78778 -5.06721
upperneck -10.3544 -6.86891 13.0037
head -0.911621 -2.86659 4.59082
rclavicle 7.65321e-015 2.04748e-014
rhumerus 71.8543 7.90384 20.8279
rradius 40.9139
rwrist -72.6612
rhand -50.3995 -8.53528
rfingers 7.12502
rthumb -22.9725 -37.1865
lclavicle 7.65321e-015 2.04748e-014
lhumerus 68.569 -14.1933 -31.6443
lradius 32.716
lwrist 31.4748
lhand -47.3749 23.9839
lfingers 7.12502
lthumb -20.0677 52.9676
rfemur -51.4984 -22.605 27.3138
rtibia 143.381
rfoot -48.0154 -2.72438
rtoes 0.177628
lfemur -48.3314 33.0335 3.00013
ltibia 146.907
lfoot -49.9325 -23.2374
ltoes -13.7567
64
root -1.40174 8.25051 1.84862 163.427 -1.71815 -172.585
lowerback 33.3974 0.132938 3.47492
upperback 7.19994 -0.731985 2.4352
thorax -9.07328 -1.40343 1.15047
lowerneck -8.91142 -6.78532 -5.10529
upperneck -10.3883 -6.85741 13.0317
head -0.923501 -2.86047 4.60729
rclavicle -4.07509e-015 -7.95139e-016
rhumerus 71.7541 7.63381 20.8048
rradius 40.8339
rwrist -72.5703
rhand -50.1764 -8.85063
rfingers 7.12502
rthumb -22.7584 -37.5283
lclavicle -4.07509e-015 -7.95139e-016
lhumerus 68.5214 -14.0262 -31.8628
lradius 32.9071
lwrist 32.2976
lhand -47.4983 23.8302
lfingers 7.12502
lthumb -20.1862 52.8014
rfemur -51.8857 -23.3128 27.145
rtibia 144.646
rfoot -48.5404 -2.989
rtoes 0.316197
lfemur -48.4632 34.7885 3.65088
ltibia 148.189
lfoot -50.3039 -23.4064
ltoes -13.1759
